<?xml version="1.0" encoding="UTF-8" standalone="no"?>
<!-- Created with Inkscape (http://www.inkscape.org/) -->

<svg
   width="210mm"
   height="297mm"
   viewBox="0 0 210 297"
   version="1.1"
   id="svg5"
   inkscape:version="1.1.2 (b8e25be833, 2022-02-05)"
   sodipodi:docname="Gard Electric.svg"
   inkscape:export-filename="C:\Users\Razvii22\Desktop\g20079.png"
   inkscape:export-xdpi="96"
   inkscape:export-ydpi="96"
   xmlns:inkscape="http://www.inkscape.org/namespaces/inkscape"
   xmlns:sodipodi="http://sodipodi.sourceforge.net/DTD/sodipodi-0.dtd"
   xmlns="http://www.w3.org/2000/svg"
   xmlns:svg="http://www.w3.org/2000/svg">
  <sodipodi:namedview
     id="namedview7"
     pagecolor="#505050"
     bordercolor="#ffffff"
     borderopacity="1"
     inkscape:pageshadow="0"
     inkscape:pageopacity="0"
     inkscape:pagecheckerboard="1"
     inkscape:document-units="mm"
     showgrid="false"
     inkscape:zoom="1.7827877"
     inkscape:cx="376.09638"
     inkscape:cy="182.85969"
     inkscape:window-width="1920"
     inkscape:window-height="1017"
     inkscape:window-x="-8"
     inkscape:window-y="-8"
     inkscape:window-maximized="1"
     inkscape:current-layer="layer1" />
  <defs
     id="defs2" />
  <g
     inkscape:label="Layer 1"
     inkscape:groupmode="layer"
     id="layer1">
    <g
       id="g217"
       inkscape:export-filename="C:\Users\Razvii22\Desktop\g217.png"
       inkscape:export-xdpi="96"
       inkscape:export-ydpi="96"
       transform="matrix(1.3035052,0,0,1.3013333,0.00288121,-0.00250487)">
      <circle
         id="path19620-9"
         cx="144.81137"
         cy="10.702988"
         r="2.0913885"
         style="stroke-width:0.264583" />
      <circle
         id="path19620"
         cx="9.6092634"
         cy="10.702988"
         r="2.0913885"
         style="stroke-width:0.264583" />
      <g
         id="g20233">
        <path
           style="fill:#000000;stroke-width:0.111904"
           d="m 0,66.742084 c 0,-0.14237 0.04313,-0.14935 0.251783,-0.0408 0.37032,0.19267 0.374688,0.21258 0.04663,0.21258 -0.193691,0 -0.29841,-0.0603 -0.29841,-0.17179 z m 3.8476829,-9.20949 C 2.883684,57.076214 2.476726,56.051234 2.838255,54.990204 c 0.09882,-0.29002 0.576561,-1.18785 1.0616519,-1.99519 0.48509,-0.80733 1.157613,-1.94627 1.4944964,-2.53096 0.3368821,-0.5847 1.1306881,-1.94433 1.7640131,-3.0214 0.633325,-1.07707 1.251595,-2.13456 1.373932,-2.34997 0.1223369,-0.21542 0.5523099,-0.94559 0.9554949,-1.62261 0.8714637,-1.46333 2.9086467,-4.96119 3.4867937,-5.98684 0.225505,-0.40005 1.005867,-1.7345 1.734137,-2.96544 0.728271,-1.23094 1.751665,-2.96825 2.27421,-3.86068 0.522545,-0.89243 1.087888,-1.8492 1.256318,-2.12616 0.168429,-0.27697 0.97617,-1.66177 1.794978,-3.07735 1.428371,-2.46941 3.728466,-6.39737 4.226527,-7.21779 0.130774,-0.21541 0.368335,-0.63471 0.527915,-0.93178 0.15958,-0.29707 0.504796,-0.87617 0.767146,-1.28689 0.262352,-0.41073 0.654907,-1.07409 0.872346,-1.47415 0.21744,-0.40005 0.838198,-1.48272 1.379463,-2.40592 0.541267,-0.92321 1.144505,-1.95552 1.340531,-2.29403 0.196026,-0.33851 0.566371,-0.95626 0.82299,-1.37279 0.256618,-0.41652 0.470324,-0.7942 0.474901,-0.83927 0.02348,-0.2312 0.987685,-1.4335 1.279108,-1.59496 1.163773,-0.6448 2.510219,-0.1378 3.275112,1.23324 0.255818,0.45854 1.26263,2.19308 1.461478,2.51783 0.956295,1.56181 2.801942,4.66089 3.165576,5.31542 0.256449,0.4616 0.703764,1.24213 0.994031,1.73451 1.737851,2.94788 2.460372,4.1711 3.767589,6.37851 0.801857,1.35403 1.750764,2.96544 2.108684,3.58091 0.357919,0.61547 0.900621,1.54707 1.206004,2.07022 0.305382,0.52315 0.75888,1.30367 1.007774,1.7345 0.248893,0.43083 0.691342,1.18618 0.983221,1.67856 0.291878,0.49237 1.030785,1.77646 1.642014,2.85354 0.611229,1.07707 2.107507,3.69561 3.32506,5.81898 1.217554,2.12337 2.628681,4.59085 3.135835,5.48328 0.507155,0.89243 1.473044,2.57938 2.14642,3.74877 2.52584,4.38641 2.722004,4.77681 2.722004,5.41737 0,0.31932 -0.0755,0.72655 -0.167734,0.90495 -0.22246,0.43019 -0.78817,0.84632 -1.3557,0.99726 -0.31899,0.0848 -3.876968,0.12145 -11.586525,0.11926 -6.119394,-0.002 -18.803529,0.0262 -28.186966,0.0622 -16.7495841,0.0642 -17.0691981,0.0614 -17.5214011,-0.15271 z m 29.1079241,-3.98832 c 3.939006,-0.0341 10.888219,-0.0928 15.442695,-0.13051 4.554476,-0.0377 8.303609,-0.0891 8.331407,-0.11422 0.06357,-0.0575 -0.388512,-0.91852 -1.459471,-2.77954 -0.460438,-0.80011 -0.982166,-1.73171 -1.159395,-2.07022 -0.177228,-0.33851 -0.414618,-0.73556 -0.527532,-0.88234 -0.112915,-0.14678 -0.2053,-0.30434 -0.2053,-0.35013 0,-0.0458 -0.407646,-0.80272 -0.905883,-1.68207 -0.498235,-0.87935 -0.934744,-1.67857 -0.97002,-1.77604 -0.03527,-0.0975 -0.206729,-0.38772 -0.381008,-0.645 -0.174279,-0.25728 -0.316871,-0.49768 -0.316871,-0.53423 0,-0.0365 -0.385756,-0.73247 -0.857236,-1.54649 -0.47148,-0.81402 -1.308792,-2.26056 -1.860695,-3.21454 -0.551903,-0.95398 -1.191239,-2.03664 -1.420749,-2.40592 -0.22951,-0.36929 -0.51767,-0.87285 -0.640355,-1.11904 -0.122686,-0.24619 -0.451791,-0.82529 -0.731346,-1.28689 -0.717094,-1.18407 -1.796037,-2.99824 -3.061417,-5.14757 -0.597873,-1.01552 -1.381277,-2.33916 -1.740897,-2.94141 -0.359622,-0.60225 -0.653856,-1.12658 -0.653856,-1.16519 0,-0.0662 -0.236088,-0.45932 -1.061952,-1.76833 -0.194152,-0.30774 -0.493483,-0.83649 -0.66518,-1.175 -0.171697,-0.3385 -0.374605,-0.691 -0.450905,-0.78332 -0.142946,-0.17296 -1.423913,-2.31826 -1.503402,-2.51783 -0.02452,-0.0615 -0.17894,-0.31333 -0.343166,-0.55952 -0.164226,-0.24619 -0.465207,-0.74975 -0.668844,-1.11904 -0.902954,-1.63743 -2.231654,-3.65805 -2.355214,-3.58169 -0.166228,0.10273 -0.896492,1.45407 -0.896492,1.65894 0,0.10004 -0.182918,0.37216 -0.406482,0.60471 -0.223565,0.23255 -0.723951,0.97674 -1.111969,1.65376 -0.899572,1.56958 -1.874233,3.20353 -2.486167,4.16787 -0.26381,0.41573 -0.509299,0.89436 -0.54553,1.06362 -0.03623,0.16925 -0.109937,0.30774 -0.163791,0.30774 -0.05385,0 -0.09792,0.0979 -0.09792,0.21746 0,0.1196 -0.09004,0.28326 -0.200095,0.36369 -0.110052,0.0804 -0.305057,0.32247 -0.433344,0.53788 -0.128288,0.21542 -0.516632,0.85942 -0.86299,1.43112 -0.346357,0.57171 -0.629739,1.06511 -0.629739,1.09645 0,0.0314 -0.383049,0.69661 -0.85122,1.47837 -1.292849,2.15883 -1.535809,2.57698 -2.061266,3.54755 -0.266564,0.49238 -0.742939,1.32326 -1.05861,1.84641 -0.31567,0.52315 -0.944588,1.58064 -1.397594,2.34998 -0.453007,0.76934 -0.934193,1.57504 -1.069302,1.79046 -0.135107,0.21541 -0.739613,1.22254 -1.343345,2.23807 -0.603731,1.01552 -1.309539,2.1989 -1.568462,2.62973 -1.688326,2.80926 -6.3322287,10.83143 -6.7506397,11.66149 -0.264152,0.52403 -0.290893,0.63817 -0.125582,0.536 0.06155,-0.038 0.111903,-0.0189 0.111903,0.0426 0,0.0615 0.188838,0.12845 0.419639,0.14885 0.5437823,0.0481 14.5137367,0.003 23.6955847,-0.0767 z m -0.139879,-0.47492 c -0.07693,-0.0276 -0.13988,-0.16197 -0.13988,-0.29862 0,-0.23312 -1.117793,-4.72279 -1.730511,-6.95068 -0.152341,-0.55392 -0.278506,-1.09526 -0.280368,-1.20297 -0.0033,-0.19147 0.277129,-0.27961 0.350976,-0.11031 0.05473,0.12547 1.441137,1.14542 1.556955,1.14542 0.139644,0 0.193659,-0.33741 0.268723,-1.67855 0.03617,-0.64624 0.111857,-1.75409 0.168192,-2.46188 0.05634,-0.70779 0.132733,-2.0926 0.16977,-3.07735 0.03704,-0.98475 0.09573,-1.8862 0.130427,-2.00321 0.0482,-0.16256 0.02015,-0.19629 -0.118858,-0.14295 -0.100069,0.0384 -1.654346,0.95901 -3.453949,2.04579 -4.067198,2.45618 -4.221622,2.54517 -4.292969,2.47382 -0.05617,-0.0562 0.255482,-1.77744 0.571553,-3.15677 0.08462,-0.36928 0.214259,-0.97356 0.288088,-1.34285 0.07383,-0.36928 0.200702,-0.94838 0.281943,-1.28689 0.08124,-0.33851 0.327871,-1.44635 0.548065,-2.46188 0.400846,-1.84868 0.562997,-2.55692 0.896708,-3.91662 0.09818,-0.40006 0.277082,-1.20576 0.397551,-1.79046 0.120467,-0.58469 0.269284,-1.23933 0.330704,-1.45474 0.06142,-0.21542 0.209423,-0.8197 0.328897,-1.34285 0.119472,-0.52315 0.351773,-1.53643 0.516223,-2.25173 l 0.299001,-1.30056 0.798946,-0.0689 c 0.439419,-0.0379 1.743132,-0.10244 2.897138,-0.14348 2.061846,-0.0733 2.098192,-0.0707 2.098192,0.15372 0,0.30056 -0.445399,1.62072 -1.199386,3.55497 -0.335882,0.86166 -0.702063,1.84361 -0.813736,2.18212 -0.111673,0.33851 -0.378374,1.09386 -0.592669,1.67855 -1.349649,3.68246 -2.172722,6.10371 -2.085703,6.13557 0.08498,0.0311 1.350212,-0.63026 2.901037,-1.51644 0.215414,-0.1231 1.498806,-0.85844 2.851981,-1.63411 1.353176,-0.77566 2.501196,-1.36942 2.551156,-1.31946 0.04996,0.05 -0.04301,0.66501 -0.206601,1.36678 -0.16359,0.70178 -0.36202,1.60327 -0.440956,2.00333 -0.326779,1.65614 -0.416621,2.07725 -1.002716,4.69995 -0.336972,1.5079 -0.842633,3.8243 -1.12369,5.14756 -0.281056,1.32326 -0.563057,2.59967 -0.626669,2.83646 -0.06361,0.23679 -0.09702,0.44917 -0.07424,0.47195 0.02278,0.0228 0.501611,-0.18356 1.064075,-0.45851 0.562464,-0.27496 1.050884,-0.49992 1.085379,-0.49992 0.145413,0 0.02568,0.23755 -0.63668,1.26316 -0.384669,0.59563 -0.825289,1.29425 -0.979157,1.55249 -0.153867,0.25823 -0.561317,0.90114 -0.905444,1.42869 -0.344127,0.52754 -1.014182,1.57482 -1.489013,2.32727 -0.47483,0.75246 -0.898264,1.38771 -0.940964,1.41167 -0.0427,0.024 -0.140584,0.021 -0.217517,-0.007 z m -1.482723,-15.19446 c 0,-0.0308 0.02518,-0.0559 0.05595,-0.0559 0.03077,0 0.05595,0.0252 0.05595,0.0559 0,0.0308 -0.02518,0.056 -0.05595,0.056 -0.03077,0 -0.05595,-0.0252 -0.05595,-0.056 z m 40.005534,-11.92043 c -0.43083,-0.045 -1.30426,-0.0626 -1.94096,-0.0391 l -1.15763,0.0428 -0.31578,-0.33806 c -0.17369,-0.18592 -0.45956,-0.55122 -0.63527,-0.81176 -0.17572,-0.26055 -0.56876,-0.81647 -0.87344,-1.23539 -0.48907,-0.67246 -0.5701,-0.73959 -0.69184,-0.5731 -0.0931,0.12739 -0.12618,0.53491 -0.10181,1.25595 0.0379,1.12175 0.15341,1.36571 0.6465,1.36571 0.11134,0 0.20242,0.0455 0.20242,0.1011 0,0.11404 -1.6809,0.198 -2.82556,0.14114 -0.41544,-0.0206 -0.75535,-0.0836 -0.75535,-0.13988 0,-0.0563 0.0895,-0.10236 0.19891,-0.10236 0.1094,0 0.30822,-0.0766 0.44182,-0.17014 0.235,-0.1646 0.24347,-0.2457 0.25982,-2.48985 0.0272,-3.72821 0.0353,-3.67278 -0.54505,-3.73985 -0.16475,-0.019 -0.29955,-0.085 -0.29955,-0.14652 0,-0.0711 0.87658,-0.11191 2.40593,-0.11191 2.27197,0 2.43182,0.0139 2.87094,0.24867 0.87344,0.46706 1.30331,1.34149 1.05952,2.15522 -0.1339,0.44691 -0.6825,1.06661 -1.04894,1.18487 -0.10771,0.0348 -0.19584,0.11391 -0.19584,0.17589 0,0.17818 1.44119,2.24525 1.80291,2.58589 0.35819,0.3373 0.82465,0.40079 1.15734,0.15751 0.18772,-0.13726 0.20826,-0.38097 0.23807,-2.82556 0.0371,-3.04074 -0.0184,-3.40273 -0.52131,-3.40273 -0.17987,0 -0.32703,-0.0463 -0.32703,-0.10299 0,-0.31228 3.63205,-0.28124 4.66704,0.0399 1.31163,0.40696 2.13996,1.50445 2.24516,2.97471 0.0631,0.88236 -0.13788,1.60219 -0.673,2.41008 -0.28735,0.43382 -0.49864,0.59911 -1.14176,0.89319 -0.65798,0.30088 -0.9827,0.37406 -1.95361,0.44031 -0.64044,0.0437 -1.21955,0.0926 -1.28689,0.10879 -0.0673,0.0161 -0.47493,-0.008 -0.90576,-0.0525 z m 2.90949,-0.81037 c 0.31337,-0.17498 0.5311,-0.41776 0.72595,-0.80946 0.24395,-0.49039 0.27805,-0.70468 0.27607,-1.7345 -0.001,-0.64625 -0.065,-1.39425 -0.14163,-1.66222 -0.26727,-0.93435 -0.88901,-1.47109 -1.70409,-1.47109 h -0.30673 l -0.0116,2.76962 c -0.006,1.52329 0.0259,2.82673 0.0717,2.89655 0.0695,0.1059 0.25029,0.18289 0.58684,0.2499 0.0308,0.006 0.25738,-0.10133 0.50357,-0.2388 z m -7.14044,-3.37511 c 0.18317,-0.21294 0.25837,-0.44028 0.25837,-0.781 0,-0.81345 -0.17945,-1.15 -0.7241,-1.358 -0.8647,-0.33024 -0.89404,-0.29165 -0.93015,1.2236 l -0.0316,1.32811 0.58458,-0.0562 c 0.45469,-0.0437 0.642,-0.12291 0.84296,-0.35654 z m 36.568091,4.0756 c -1.0643,-0.26792 -1.75879,-0.79373 -2.20221,-1.66734 -0.31797,-0.62644 -0.36563,-0.83159 -0.36563,-1.57371 0,-0.73789 0.0496,-0.95406 0.36633,-1.59749 0.38705,-0.78621 1.08581,-1.50258 1.84366,-1.89013 0.68493,-0.35027 1.98812,-0.39868 2.92451,-0.10864 0.79526,0.24632 1.18511,0.22936 1.18511,-0.0516 0,-0.0882 0.0755,-0.16031 0.16785,-0.16031 0.13733,0 0.16786,0.1917 0.16786,1.05393 0,1.05622 -0.0567,1.40794 -0.2271,1.40794 -0.0502,0 -0.15085,-0.18056 -0.22368,-0.40126 -0.16098,-0.48776 -0.69463,-1.11541 -1.14747,-1.34958 -0.18375,-0.095 -0.58113,-0.17085 -0.88308,-0.16851 -1.43527,0.0111 -2.3081,1.42076 -2.19648,3.5474 0.0877,1.67072 0.75502,2.5124 1.99197,2.5124 0.85575,0 1.31075,-0.16868 1.8508,-0.68611 0.52422,-0.50227 0.61123,-0.5272 0.61123,-0.17512 0,0.32583 -0.58893,0.90307 -1.17499,1.15164 -0.70399,0.2986 -1.85736,0.36571 -2.68868,0.15645 z m 25.85273,0.0678 c -1.16345,-0.28648 -1.67488,-0.65982 -2.27914,-1.66381 -0.3952,-0.65664 -0.45943,-2.03772 -0.13468,-2.89581 0.42921,-1.13408 1.48589,-2.09893 2.63339,-2.40453 0.8012,-0.21337 1.39649,-0.18902 2.36819,0.0969 l 0.84854,0.24964 0.21666,-0.26755 c 0.13391,-0.16539 0.25648,-0.22773 0.32096,-0.16325 0.12417,0.12418 0.007,2.3934 -0.12381,2.3934 -0.12811,0 -0.4364,-0.46746 -0.44078,-0.66835 -0.005,-0.23533 -0.33064,-0.60439 -0.83495,-0.94662 -0.48867,-0.33162 -1.32505,-0.3908 -1.8246,-0.12909 -0.95607,0.50088 -1.40977,1.49805 -1.40451,3.08691 0.004,1.15724 0.26333,2.00123 0.7477,2.43185 0.83949,0.74634 2.46022,0.4878 3.42345,-0.54611 0.14222,-0.15266 0.23367,-0.18367 0.28702,-0.0974 0.28735,0.46494 -0.763,1.32508 -1.89177,1.54917 -0.80346,0.15951 -1.18123,0.1545 -1.91167,-0.0254 z m -78.724181,-0.0601 c -1.162275,-0.21322 -1.939144,-0.7214 -2.554086,-1.67072 -0.396425,-0.61198 -0.408305,-0.66107 -0.40981,-1.69334 -0.0014,-0.95602 0.03157,-1.1285 0.327314,-1.7126 0.526007,-1.03887 1.379165,-1.68691 2.598515,-1.97377 0.670096,-0.15764 1.357098,-0.0988 2.415341,0.20695 0.754584,0.218 0.75469,0.218 0.914261,-0.01 0.08777,-0.12531 0.213971,-0.19424 0.280436,-0.15316 0.149912,0.0927 0.165142,2.25897 0.01653,2.35082 -0.05737,0.0355 -0.261194,-0.22594 -0.452929,-0.58089 -0.942873,-1.74549 -2.926057,-1.98042 -3.715166,-0.44011 -0.184661,0.36045 -0.264171,0.81161 -0.350607,1.98946 -0.108366,1.47664 -0.103886,1.54003 0.146341,2.07021 0.141971,0.30081 0.357979,0.65806 0.480018,0.79389 0.307103,0.3418 1.263327,0.532 1.862903,0.37055 l 0.455207,-0.12257 v -0.84006 c 0,-0.7427 -0.03183,-0.87188 -0.274673,-1.11472 -0.15107,-0.15107 -0.355468,-0.27467 -0.454218,-0.27467 -0.105156,0 -0.147111,-0.0525 -0.101261,-0.12667 0.05531,-0.0895 0.536659,-0.10815 1.640234,-0.0636 0.85907,0.0347 1.589147,0.0903 1.622392,0.12353 0.03324,0.0332 -0.084,0.11536 -0.260533,0.18248 -0.451701,0.17174 -0.489746,0.27284 -0.491674,1.3065 l -0.0017,0.91871 -0.731907,0.22607 c -0.843178,0.26043 -2.229685,0.37164 -2.960911,0.23749 z m 59.616641,0.0154 c -0.3539,-0.0185 -0.64345,-0.0814 -0.64345,-0.13988 0,-0.0585 0.10301,-0.10632 0.2289,-0.10632 0.12589,0 0.35013,-0.12123 0.49831,-0.26941 l 0.26941,-0.26942 -0.0227,-2.77995 -0.0227,-2.77997 -0.46024,-0.0337 c -0.55665,-0.0407 -1.07432,0.33384 -1.2915,0.93443 -0.24975,0.69067 -0.43038,0.48203 -0.43038,-0.49713 0,-0.70219 0.0363,-0.89718 0.17701,-0.95118 0.0974,-0.0374 1.50163,-0.0679 3.1206,-0.0679 h 2.94359 l 0.0555,0.36368 c 0.0855,0.55978 -0.0408,1.53868 -0.19844,1.53868 -0.0754,0 -0.22198,-0.22252 -0.32585,-0.49449 -0.23675,-0.61994 -0.60252,-0.87162 -1.20121,-0.82655 l -0.45346,0.0341 -0.0391,0.55952 c -0.11287,1.61711 -0.14426,4.90013 -0.0492,5.15007 0.0708,0.18613 0.22212,0.30509 0.44482,0.34963 0.51446,0.10289 0.40262,0.26183 -0.19398,0.27569 -0.29235,0.007 -0.80851,0.0194 -1.14702,0.028 -0.3385,0.009 -0.90502,5.6e-4 -1.25891,-0.0179 z m 9.99317,-0.002 c -0.0589,-0.0195 -0.39699,-0.47275 -0.75132,-1.00713 -0.75053,-1.13187 -1.46861,-2.03468 -1.61841,-2.03468 -0.0613,0 -0.0919,0.54783 -0.0735,1.31487 l 0.0315,1.31487 0.36368,0.10707 c 0.20003,0.0589 0.36369,0.14701 0.36369,0.19583 0,0.0488 -0.80571,0.0888 -1.79046,0.0888 -1.11903,0 -1.79045,-0.042 -1.79045,-0.1119 0,-0.0615 0.0732,-0.11191 0.16258,-0.11191 0.0894,0 0.28885,-0.0575 0.44315,-0.12783 0.35811,-0.16316 0.38525,-0.37591 0.43707,-3.42578 0.0439,-2.58368 -0.003,-2.8249 -0.54558,-2.8249 -0.17412,0 -0.27342,-0.0639 -0.27342,-0.1761 0,-0.15589 0.26013,-0.17093 2.26605,-0.13105 2.51219,0.0499 2.91472,0.12946 3.53553,0.6984 0.4011,0.36758 0.40907,0.39122 0.40907,1.21374 0,0.93733 -0.16932,1.23231 -0.90881,1.58322 -0.20794,0.0987 -0.37808,0.22253 -0.37808,0.27523 0,0.12824 1.48641,2.34454 1.78618,2.66329 0.27702,0.29454 0.95557,0.34315 1.29776,0.093 0.1941,-0.14191 0.22109,-0.32827 0.25364,-1.75066 0.0282,-1.23115 0.003,-1.61314 -0.1119,-1.68587 -0.11178,-0.0709 -0.11386,-0.0945 -0.008,-0.0958 0.19266,-0.002 0.19783,-2.3609 0.006,-2.55312 -0.0739,-0.0739 -0.27948,-0.13429 -0.45694,-0.13429 -0.20833,0 -0.30618,-0.0496 -0.27614,-0.13988 0.0588,-0.17672 3.54842,-0.20416 3.55848,-0.028 0.003,0.0615 -0.0844,0.12952 -0.19535,0.15106 -0.11095,0.0215 -0.30756,0.13657 -0.43689,0.25565 -0.2002,0.18435 -0.24505,0.39167 -0.30191,1.39565 -0.0386,0.6813 -0.0202,1.30156 0.0435,1.4691 0.0741,0.19481 0.0722,0.32804 -0.006,0.40602 -0.0656,0.0656 -0.11606,0.63389 -0.11606,1.30728 0,1.29157 0.1144,1.56161 0.66158,1.56161 0.15229,0 0.23367,0.0554 0.20531,0.13988 -0.0359,0.10695 -0.70973,0.13988 -2.86239,0.13988 -1.54848,0 -2.86359,-0.016 -2.92249,-0.0355 z m -0.89342,-4.03053 c 0.2903,-0.35851 0.38503,-1.26234 0.17489,-1.6687 -0.24945,-0.48238 -0.67036,-0.7182 -1.20998,-0.67788 l -0.45704,0.0341 -0.0484,1.27573 c -0.032,0.84387 -0.007,1.30106 0.0726,1.35053 0.24679,0.15253 1.26692,-0.0656 1.46795,-0.31382 z m -64.053741,3.93553 c -0.136142,-0.13614 -0.07752,-0.23609 0.17718,-0.30208 0.138481,-0.0359 0.362429,-0.23017 0.497663,-0.43177 0.220445,-0.32862 1.490477,-3.06447 2.494812,-5.37422 0.207407,-0.47699 0.411482,-0.86725 0.453501,-0.86725 0.08126,0 0.133973,0.11508 1.56324,3.41306 1.21161,2.79572 1.40935,3.17406 1.73701,3.32335 0.15165,0.0691 0.275724,0.16791 0.275724,0.21957 0,0.0517 -0.755344,0.094 -1.678554,0.094 -1.590878,0 -2.114309,-0.11032 -1.335281,-0.28142 0.459804,-0.10099 0.491647,-0.24371 0.217725,-0.97584 -0.268607,-0.71791 -0.417958,-0.78001 -1.792462,-0.74533 -0.735343,0.0186 -0.804649,0.0417 -0.946386,0.31578 -0.08412,0.16266 -0.186282,0.47348 -0.227035,0.69072 -0.08256,0.44008 0.02556,0.58237 0.535077,0.70418 0.602948,0.14414 0.167724,0.29191 -0.859783,0.29191 -0.570806,0 -1.071401,-0.0336 -1.112431,-0.0746 z m 3.767062,-2.35652 c 0.04939,-0.0799 -0.63266,-1.89471 -0.759923,-2.02198 -0.04749,-0.0475 -0.955574,1.78223 -0.955574,1.92542 0,0.11989 1.643892,0.21242 1.715497,0.0966 z m 21.224738,2.31923 c 0,-0.0615 0.1223,-0.11191 0.27177,-0.11191 0.54423,0 0.58225,-0.15216 0.66258,-2.65178 0.10152,-3.15947 0.0178,-3.72673 -0.54978,-3.72673 -0.1427,0 -0.2879,-0.046 -0.32268,-0.10229 -0.10043,-0.16251 1.38812,-0.24942 3.63093,-0.212 l 2.07022,0.0345 v 0.99781 c 0,1.10035 -0.16501,1.37531 -0.39522,0.65856 -0.27378,-0.85239 -0.76424,-1.15281 -1.88211,-1.15281 h -0.77775 l -0.0148,1.34285 c -0.01,0.88408 0.0259,1.34284 0.10436,1.34284 0.0655,0 0.28762,-0.0704 0.49358,-0.15646 0.35439,-0.14807 0.53304,-0.45643 0.80488,-1.38931 0.0236,-0.0808 0.0935,-0.11563 0.15552,-0.0773 0.22833,0.14112 0.0781,3.68179 -0.15295,3.60477 -0.0661,-0.022 -0.1543,-0.20648 -0.19589,-0.40985 -0.10982,-0.53695 -0.30899,-0.85864 -0.61911,-0.99994 -0.57765,-0.2632 -0.59791,-0.22427 -0.59791,1.14893 0,1.54785 0.0214,1.57724 1.09254,1.49965 1.07757,-0.078 1.66564,-0.4843 2.03566,-1.40624 0.0812,-0.20235 0.2037,-0.34922 0.27221,-0.32639 0.1515,0.0505 0.15227,0.0193 -0.0302,1.22583 l -0.1481,0.97916 h -2.95389 c -1.89465,0 -2.95389,-0.0401 -2.95389,-0.1119 z m 6.82612,0.009 c 0,-0.0567 0.15149,-0.13628 0.33664,-0.17695 0.18516,-0.0407 0.3824,-0.15944 0.43833,-0.26394 0.0981,-0.1833 0.16649,-2.63647 0.1344,-4.8213 -0.0166,-1.13199 -0.0655,-1.23241 -0.60163,-1.2354 -0.19818,-10e-4 -0.30774,-0.0615 -0.30774,-0.16957 0,-0.14198 0.26733,-0.16785 1.73451,-0.16785 h 1.81843 c 0.0462,0 0.0839,0.063 0.0839,0.13988 0,0.0769 -0.16359,0.15565 -0.36354,0.17493 -0.20717,0.02 -0.40957,0.12107 -0.47056,0.23504 -0.13207,0.24677 -0.24597,4.8205 -0.1354,5.43699 l 0.0803,0.44762 0.97149,-0.003 c 1.19592,-0.003 1.44049,-0.14984 1.96465,-1.17751 0.481,-0.94305 0.63303,-0.99271 0.54153,-0.1769 -0.0388,0.34632 -0.1016,0.90664 -0.13947,1.24515 l -0.0688,0.61547 h -3.0085 c -1.75795,-10e-6 -3.00851,-0.0428 -3.00851,-0.10302 z m 6.71422,-0.009 c 0,-0.0615 0.12589,-0.11191 0.27976,-0.11191 0.15386,0 0.38047,-0.10071 0.50356,-0.2238 0.20841,-0.20841 0.22516,-0.38742 0.2434,-2.60176 0.0288,-3.50105 0.0332,-3.47442 -0.58782,-3.61081 -0.84509,-0.18561 0.0104,-0.27785 2.577131,-0.27785 2.430856,0 2.787518,0.0222 2.846928,0.17701 0.10301,0.26844 0.0779,1.64824 -0.0332,1.82362 -0.143042,0.22583 -0.311042,0.0699 -0.392492,-0.36425 -0.14628,-0.77973 -0.901596,-1.18416 -2.052206,-1.09883 l -0.58749,0.0436 v 1.33959 c 0,1.33614 6.7e-4,1.3394 0.25178,1.26687 0.49711,-0.14357 0.80963,-0.46652 0.95726,-0.98924 0.0807,-0.28588 0.19424,-0.51978 0.25221,-0.51978 0.0615,0 0.1054,0.74508 0.1054,1.79046 0,1.44279 -0.0298,1.79046 -0.15355,1.79046 -0.0921,0 -0.18165,-0.17565 -0.22375,-0.43896 -0.13692,-0.85626 -1.06755,-1.52025 -1.22765,-0.87591 -0.10513,0.42312 0.0409,2.36548 0.1854,2.46556 0.19074,0.13214 1.55122,0.0278 1.819136,-0.13954 0.12452,-0.0778 0.30982,-0.28673 0.41177,-0.46437 0.10195,-0.17764 0.26581,-0.32298 0.36413,-0.32298 0.0985,0 0.25222,-0.17578 0.342422,-0.39166 0.173582,-0.41544 0.384352,-0.52276 0.384592,-0.19583 8e-5,0.10771 -0.0579,0.61127 -0.12886,1.11904 l -0.129,0.9232 h -3.00444 c -1.928361,0 -3.004441,-0.0401 -3.004441,-0.1119 z m 8.168961,-9.17383 c 0,-0.0603 0.19936,-0.21133 0.44302,-0.33564 0.5463,-0.2787 0.99971,-0.75261 0.95239,-0.99545 -0.0195,-0.10003 -0.0393,-0.21965 -0.044,-0.26581 -0.005,-0.0462 -0.22638,-0.0839 -0.49262,-0.0839 -0.59102,0 -0.97068,-0.3389 -0.97068,-0.86647 0,-0.38393 0.18283,-0.61538 0.69561,-0.88055 0.45041,-0.23291 0.94733,-0.12845 1.39772,0.29382 0.43677,0.40951 0.55765,0.94564 0.36686,1.62709 -0.17358,0.61997 -0.6578,1.06467 -1.50404,1.38129 -0.70425,0.2635 -0.84425,0.28433 -0.84425,0.12565 z m -7.905911,-4.84613 c -0.42164,-0.51611 -0.91769,-1.13329 -1.10233,-1.37151 -0.18464,-0.23821 -0.6469,-0.81299 -1.02724,-1.27728 -2.24294,-2.73798 -3.95989,-4.84564 -4.40008,-5.40137 -0.27696,-0.34965 -0.53743,-0.63811 -0.57882,-0.64102 -0.0755,-0.005 -0.10929,1.62887 -0.11811,5.70609 -0.004,1.82052 0.0262,2.24625 0.18014,2.54391 0.2153,0.41634 0.69481,0.69699 1.19086,0.69699 0.27256,0 0.34119,0.0431 0.31184,0.19583 -0.034,0.17688 -0.24052,0.19878 -2.13437,0.22628 -1.99384,0.029 -2.09675,0.02 -2.09675,-0.18153 0,-0.16138 0.10872,-0.22936 0.4555,-0.28481 0.56985,-0.0911 0.92326,-0.31829 1.10874,-0.71269 0.19309,-0.41059 0.29718,-9.30843 0.11292,-9.65273 -0.17748,-0.33163 -0.99594,-0.89260998 -1.30228,-0.89260998 -0.15915,0 -0.26297,-0.0663 -0.26297,-0.16786 0,-0.0923 0.0126,-0.17047 0.028,-0.17366 0.27191,-0.0564 3.95031,-0.11488 4.14558,-0.0659 0.19042,0.0478 0.91599,0.91939998 2.41043,2.89558998 2.92214,3.86411 3.39512,4.46744 3.4552,4.40736 0.0285,-0.0285 0.0715,-1.32732 0.0954,-2.88622 0.0486,-3.16109 0.0107,-3.38346 -0.64447,-3.78290998 -0.2035,-0.12407 -0.50849,-0.22578 -0.67775,-0.22601 -0.19875,-2.7e-4 -0.30773,-0.0599 -0.30773,-0.16827 0,-0.14302 0.29945,-0.16786 2.02359,-0.16786 1.486261,0 2.012091,0.0345 1.980291,0.12991 -0.0238,0.0714 -0.27107,0.19631 -0.54945,0.27749 -0.27838,0.0812 -0.59482,0.24557 -0.70321,0.36533998 -0.29884,0.33022 -0.39192,1.41774 -0.41274,4.82244 -0.0262,4.28467 -0.126221,6.63029 -0.284981,6.68281 -0.0707,0.0234 -0.47359,-0.37972 -0.89522,-0.89583 z M 95.67757,0.72293402 c 0,-0.0308 -0.0252,-0.0559 -0.056,-0.0559 -0.0308,0 -0.0559,0.0252 -0.0559,0.0559 0,0.0308 0.0252,0.0559 0.0559,0.0559 0.0308,0 0.056,-0.0252 0.056,-0.0559 z m 35.3734,11.51887998 c -0.83993,-0.70675 -0.57811,-2.01491 0.49283,-2.46237 0.53425,-0.22323 1.1284,-0.0863 1.57855,0.36388 0.33397,0.33398 0.37863,0.44785 0.37863,0.96548 0,0.95351 -0.50999,1.41996 -1.5525,1.41996 -0.43405,0 -0.63153,-0.0631 -0.89751,-0.28695 z m -67.581431,0.0865 c -1.058844,-0.0371 -1.220374,-0.249 -0.29065,-0.38125 0.83466,-0.11873 1.05287,-0.43302 1.05719,-1.5227 0.002,-0.47356 0.005,-2.77457 0.007,-5.11335 l 0.004,-4.25234 -0.675,-0.0332 c -0.37125,-0.0183 -0.87462,0.0205 -1.118604,0.0862 -0.59889,0.16126 -1.28282,0.94742 -1.54515,1.77609 -0.12626,0.39885 -0.26237,0.63279 -0.36817,0.63279 -0.13497,0 -0.174702,-0.20825 -0.202798,-1.06308 -0.01922,-0.5847 -0.0027,-1.33014 0.03677,-1.65653998 l 0.07171,-0.59346 5.446502,0.0505 c 2.99558,0.0278 5.45909,0.0557 5.47448,0.0619 0.0154,0.006 0.028,0.74156998 0.028,1.63399998 0,1.51659 -0.0138,1.6226 -0.21152,1.6226 -0.15976,0 -0.27543,-0.18102 -0.47266,-0.73968 -0.30988,-0.87778 -0.89839,-1.54207 -1.51877,-1.71434 -0.65066,-0.18067998 -1.78814,-0.15491998 -1.86378,0.0422 -0.0342,0.0891 -0.0493,2.39289 -0.0337,5.11959 0.0305,5.31337 0.0295,5.304 0.60264,5.56513 0.14469,0.0659 0.43696,0.11987 0.64948,0.11987 0.26886,0 0.38639,0.0511 0.38639,0.16785 0,0.0923 -0.0629,0.17295 -0.13988,0.17917 -0.38487,0.0311 -4.51228,0.0404 -5.32319,0.012 z m 8.84087,-0.10726 c 0.0254,-0.13395 0.16056,-0.20594 0.42784,-0.22782 0.57769,-0.0473 0.9623,-0.23022 1.09459,-0.52057 0.0991,-0.2176 0.19221,-6.25665 0.14607,-9.47839 -0.0138,-0.96228 -0.19281,-1.19694998 -0.98352,-1.28916998 -0.31967,-0.0373 -0.60576,-0.13175 -0.63577,-0.20994 -0.0725,-0.18904 0.92292,-0.22505 6.14075,-0.22213 l 4.14043,0.002 V 2.065494 c 0,1.67186 -0.0138,1.79045 -0.20844,1.79045 -0.15636,0 -0.25879,-0.16272 -0.40995,-0.65128 -0.30075,-0.97201 -0.67376,-1.4622 -1.37301,-1.80431 -0.55139,-0.26977 -0.72346,-0.29577 -1.97501,-0.29845 -0.75404,-0.002 -1.39599,0.0221 -1.42656,0.0526 -0.0458,0.0458 -0.0812,3.52219 -0.0449,4.41482 0.01,0.23244 0.0509,0.25227 0.4085,0.19544 1.00895,-0.16035 1.5367,-0.73862 1.78623,-1.95725 0.11959,-0.58402 0.3927,-0.93698 0.58004,-0.74964 0.12189,0.1219 0.0492,6.14239 -0.0757,6.26726 -0.19101,0.191 -0.43856,-0.033 -0.50349,-0.45567 -0.09,-0.58609 -0.61509,-1.59897 -0.95882,-1.84963 -0.15694,-0.11445 -0.50812,-0.21799 -0.78333,-0.23095 l -0.49885,-0.0235 -0.0288,2.15836 -0.0289,2.15835 0.2893,0.2893 c 0.28376,0.28376 0.31322,0.28833 1.53955,0.23862 1.16613,-0.0473 1.30392,-0.078 2.04806,-0.45598 0.85867,-0.43622 1.39683,-1.02901 1.83649,-2.02294 0.42204,-0.9541 0.70888,-0.81653 0.55237,0.26495 -0.0578,0.39955 -0.1588,1.14965 -0.22442,1.6669 -0.19195,1.51319 0.4689,1.35357 -5.60413,1.35357 -4.95261,0 -5.26154,-0.0116 -5.22664,-0.19583 z m 27.900331,0.0857 c -0.11923,-0.1929 0.0524,-0.33744 0.40079,-0.33744 0.593,0 1.07195,-0.27655 1.21156,-0.69955 0.07,-0.21203 0.11981,-0.53163 0.11076,-0.71023 -0.009,-0.1786 0.0226,-2.41 0.0703,-4.95868 l 0.0868,-4.63394998 -0.91123,0.0703 c -0.50118,0.0387 -1.05696,0.14562 -1.235052,0.23772 -0.605312,0.31302 -1.349182,1.43823 -1.355152,2.04987 -0.002,0.17636 -0.0695,0.25178 -0.226256,0.25178 -0.21352,0 -0.22381,-0.0746 -0.22381,-1.6226 V 0.33127402 l 2.322,-0.0126 c 4.17622,-0.0227 8.56807,0.0213 8.67414,0.0868 0.0588,0.0363 0.0764,0.45919 0.0404,0.97414998 -0.0349,0.50046 -0.0649,1.19947 -0.0667,1.55337 -0.003,0.54302 -0.0346,0.64344 -0.20407,0.64344 -0.14678,0 -0.25391,-0.17255 -0.39836,-0.64167 -0.23056,-0.74875 -0.58932,-1.25892 -1.11278,-1.58244 -0.40478,-0.25017 -1.458,-0.42090998 -1.90475,-0.30878 -0.27127,0.0681 -0.27885,0.0996 -0.34684,1.44113 -0.14324,2.82667 -0.17754,8.57741 -0.0528,8.8512 0.14493,0.31807 0.75756,0.63334 1.23072,0.63334 0.26368,0 0.33166,0.044 0.30245,0.19583 -0.0346,0.18013 -0.2904,0.19821 -3.18978,0.22553 -2.04476,0.0193 -3.17679,-0.0102 -3.22234,-0.0839 z m 9.80413,0.009 c -0.22809,-0.14447 -0.0462,-0.3465 0.31198,-0.3465 0.5138,0 0.97809,-0.21677 1.11692,-0.52147 0.15553,-0.34134 0.19746,-1.22338 0.29814,-6.272 l 0.0763,-3.82802 -0.34039,-0.34039 c -0.28009,-0.28008998 -0.43112,-0.34038998 -0.85256,-0.34038998 -0.37436,0 -0.51218,-0.044 -0.51218,-0.16333 0,-0.12734 0.2034,-0.17049 0.92321,-0.19583 1.69522,-0.0597 5.51253,0.0734 5.48756,0.19131 -0.013,0.0616 -0.258,0.14632 -0.54439,0.18839 -0.59785,0.0878 -1.00083,0.41042998 -1.09389,0.87571998 -0.0353,0.17659 -0.099,2.42734 -0.14146,5.00167 l -0.0772,4.68061 0.2726,0.31692 c 0.20543,0.23882 0.40332,0.33165 0.80303,0.37671 0.56148,0.0633 0.76722,0.21472 0.51163,0.3766 -0.0848,0.0537 -1.48866,0.0977 -3.11966,0.0977 -1.63099,0 -3.03484,-0.044 -3.11966,-0.0977 z m 7.03629,-0.10736 c 0,-0.17149 0.10578,-0.22083 0.56885,-0.26533 0.64756,-0.0622 0.98652,-0.32468 1.06444,-0.8242 0.0814,-0.52218 0.24383,-8.97707 0.18282,-9.51842 -0.0717,-0.63625998 -0.42316,-0.93345998 -1.10384,-0.93345998 -0.35373,0 -0.48847,-0.0451 -0.48847,-0.16345 0,-0.13704 0.37521,-0.16868 2.322,-0.19583 1.2771,-0.0178 3.56833,-0.0173 5.09162,0.001 l 2.76961,0.0334 V 2.127094 c 0,1.6302 -0.0171,1.78499 -0.19723,1.78499 -0.1465,0 -0.25009,-0.1846 -0.40279,-0.71777 -0.45539,-1.5901 -1.13518,-2.03663 -3.27586,-2.15173 -1.26134,-0.0678 -1.36586,-0.0579 -1.46785,0.13933 -0.0604,0.11678 -0.13854,1.20688 -0.17366,2.42243 l -0.0639,2.2101 h 0.45171 c 0.58292,0 1.15447,-0.27503 1.45831,-0.70173 0.13254,-0.18614 0.34623,-0.71729 0.47486,-1.18034 0.40271,-1.4496 0.51076,-1.20105 0.5101,1.17335 0,1.15913 -0.0331,2.59849 -0.0728,3.19857 -0.0636,0.96075 -0.097,1.09106 -0.27918,1.09106 -0.16147,0 -0.20693,-0.0851 -0.20693,-0.38746 0,-0.55227 -0.39503,-1.53468 -0.75568,-1.87931 -0.35779,-0.34189 -1.30745,-0.63862 -1.48278,-0.4633 -0.12884,0.12885 -0.19295,4.10414 -0.0722,4.47464 0.13917,0.42686 0.52315,0.5281 1.77176,0.46715 2.04659,-0.0999 2.97607,-0.64771 3.7343,-2.20084 0.30104,-0.61666 0.5037,-0.90452 0.63725,-0.90516 0.23649,-10e-4 0.23533,-0.0438 0.029,1.06214 -0.0918,0.49238 -0.23345,1.32326 -0.31465,1.84641 l -0.14765,0.95118 -5.2806,0.0291 c -5.10651,0.0281 -5.28062,0.0221 -5.28062,-0.18159 z m -69.043383,-0.0967 c 6.72e-4,-0.12416 0.16437,-0.26695 0.437301,-0.38153 0.57167,-0.24001 1.074789,-0.94445 1.740538,-2.43702 0.290608,-0.65152 0.593924,-1.31048 0.674034,-1.46435 0.08011,-0.15387 0.381735,-0.83368 0.670277,-1.5107 0.288542,-0.67701 0.56126,-1.28129 0.606042,-1.34284 0.04478,-0.0616 0.22489,-0.4644 0.400243,-0.89523 0.175353,-0.43083 0.580206,-1.33725 0.899672,-2.01426 0.319465,-0.67702 0.669477,-1.41977998 0.777803,-1.65057998 0.108327,-0.2308 0.254166,-0.41762 0.324087,-0.415160001217 C 54.70607,0.00602402 55.279357,1.267834 58.03129,7.689654 c 1.422157,3.3187 1.793627,3.95019 2.451365,4.16726 0.21609,0.0713 0.3929,0.20214 0.3929,0.29071 0,0.13676 -0.44126,0.15654 -2.928199,0.1312 -2.145364,-0.0219 -2.940075,-0.0655 -2.972631,-0.1633 -0.0269,-0.0808 0.123943,-0.16124 0.38239,-0.20388 0.625703,-0.10324 0.930685,-0.28355 0.928268,-0.54882 -0.0012,-0.12808 -0.195291,-0.71126 -0.431387,-1.29596 l -0.429268,-1.06306 -0.574559,-0.0828 c -0.316008,-0.0456 -1.242318,-0.0707 -2.058466,-0.0559 l -1.483908,0.0269 -0.357808,0.72737 c -0.359872,0.73157 -0.477809,1.55824 -0.26927,1.88741 0.05328,0.0841 0.367234,0.2138 0.697683,0.28822 0.381953,0.086 0.600817,0.19338 0.600817,0.29471 0,0.13079 -0.356455,0.16488 -1.986289,0.18996 -1.838794,0.0283 -1.986204,0.0158 -1.985151,-0.16786 z m 6.824981,-4.1705 c 0,-0.10095 -0.451639,-1.21825 -1.119753,-2.77011 -0.139111,-0.32312 -0.286052,-0.58749 -0.326536,-0.58749 -0.128798,0 -1.575108,3.0872 -1.575108,3.36213 0,0.0626 0.625466,0.10688 1.510699,0.10688 0.928032,0 1.510698,-0.043 1.510698,-0.11141 z m 77.064282,0.48442 c -0.041,-0.041 -0.0747,-0.22987 -0.0749,-0.41964 0,-0.18977 -0.25194,-1.59032 -0.55952,-3.11233 -0.30757,-1.52202 -0.55914,-2.95718 -0.55904,-3.18926 0,-1.27275998 1.26681,-2.08025998 2.3274,-1.48417998 0.24583,0.13817 0.50251,0.37311 0.57039,0.52211 0.22084,0.48468998 0.13744,1.60108998 -0.2201,2.94604998 -0.62354,2.34559 -0.7688,2.96842 -0.88748,3.80522 -0.12157,0.85718 -0.33627,1.19251 -0.59674,0.93203 z"
           id="path628"
           sodipodi:nodetypes="ssssscsssssssssssssssssssssssssssssssssscccccccscsssssssssssssssssssssssssssssscssssssssssscsccccssssssssssssssssssssscssssssssscsssssssssssscccsssssscccsscssscssccssssscssssssscssscsscsccscccccccssccsccssssssssssssssssssscsssscssscsscsscsccssssssssssssssscsssssssscssscssscccsssssccsssccsscccccssccssssscssssssssssscccsscsssscssssccssscscsscsssssssssscssssccssssscssssscsssccsscccssscssscscccsssssssssssccscccsccssscsssssscsscsssssssssssscsssssscssssssssssssscsssssssssscssscsssssssssssssssssssssssscccsssssccscssssscsssssscscsscscsssssccsssscsscccsssssssccssscccsscsscssccssssssscssssssccsssscssscsssssscscssssccsssssccsssccsssscssccscsccssssssssscsssssscscsscsssssssssssssscscssssss"
           transform="translate(3.7041669,5.9050968)" />
        <path
           style="fill:none;stroke:#000000;stroke-width:0.264583px;stroke-linecap:butt;stroke-linejoin:miter;stroke-opacity:1"
           d="M 0.1322915,0.1322915 V 72.902493 H 153.29574 V 0.1322915 Z"
           id="path20148" />
      </g>
    </g>
  </g>
</svg>
